<svg width="205" height="39" viewBox="0 0 205 39" fill="none" xmlns="http://www.w3.org/2000/svg">
<path d="M26.9316 32.3422C16.6898 35.5268 0.14784 32.2722 0.000912041 18.0895C-0.146016 3.90646 17.5084 12.3551 17.5084 12.3551L26.9316 32.3422Z" fill="#FFC250"/>
<path d="M4.98054 10.1317C12.1285 8.90686 17.5573 18.3787 23.5635 28.2592C29.5698 38.1398 45.21 42.0561 55.2035 33.7471C65.1969 25.4381 69.4265 10.8857 57.1562 2.20543C44.8859 -6.47482 37.2263 13.2321 26.6629 13.7738C16.0997 14.3155 16.0226 6.46346 4.98054 10.1317Z" fill="#FFD064"/>
<circle cx="56.1209" cy="18.5306" r="3.13704" fill="#FFE19D"/>
<circle cx="50.1083" cy="20.8838" r="2.35278" fill="#FFE19D"/>
<circle cx="54.2911" cy="24.0201" r="1.82994" fill="#FFE19D"/>
<path d="M80.7 31.7834V4.99629H91.4532C94.2339 4.99629 96.3514 5.64684 97.8055 6.94793C99.2852 8.22351 100.025 9.869 100.025 11.8844C100.025 13.5682 99.5658 14.9203 98.6474 15.9408C97.7545 16.9357 96.6575 17.6118 95.3564 17.9689C96.8871 18.2751 98.15 19.0404 99.1449 20.265C100.14 21.464 100.637 22.8672 100.637 24.4744C100.637 26.5918 99.872 28.3394 98.3413 29.717C96.8106 31.0946 94.6421 31.7834 91.8358 31.7834H80.7ZM85.5983 16.2469H90.7261C92.1037 16.2469 93.1624 15.928 93.9023 15.2902C94.6421 14.6524 95.012 13.7468 95.012 12.5732C95.012 11.4507 94.6421 10.5706 93.9023 9.93278C93.188 9.26948 92.1037 8.93783 90.6495 8.93783H85.5983V16.2469ZM85.5983 27.8036H91.0705C92.5247 27.8036 93.6472 27.472 94.438 26.8087C95.2544 26.1199 95.6626 25.1632 95.6626 23.9386C95.6626 22.6886 95.2416 21.7064 94.3998 20.9921C93.5579 20.2777 92.4226 19.9206 90.994 19.9206H85.5983V27.8036ZM109.74 32.2427C108.107 32.2427 106.767 31.9875 105.722 31.4773C104.676 30.9416 103.897 30.24 103.387 29.3726C102.877 28.5052 102.622 27.5485 102.622 26.5026C102.622 24.7423 103.311 23.3136 104.688 22.2166C106.066 21.1196 108.132 20.5711 110.888 20.5711H115.709V20.1119C115.709 18.8108 115.339 17.8541 114.6 17.2418C113.86 16.6296 112.941 16.3234 111.844 16.3234C110.849 16.3234 109.982 16.5658 109.242 17.0505C108.502 17.5097 108.043 18.1985 107.864 19.1169H103.081C103.209 17.7393 103.668 16.5403 104.459 15.5198C105.275 14.4994 106.321 13.7213 107.597 13.1855C108.872 12.6243 110.301 12.3436 111.883 12.3436C114.587 12.3436 116.717 13.0197 118.273 14.3718C119.829 15.7239 120.608 17.6373 120.608 20.1119V31.7834H116.436L115.977 28.7221C115.416 29.7425 114.625 30.5844 113.605 31.2477C112.61 31.911 111.321 32.2427 109.74 32.2427ZM110.849 28.4159C112.252 28.4159 113.337 27.9567 114.102 27.0383C114.893 26.1199 115.39 24.9846 115.594 23.6325H111.423C110.122 23.6325 109.191 23.8749 108.63 24.3596C108.069 24.8188 107.788 25.3928 107.788 26.0816C107.788 26.8214 108.069 27.3955 108.63 27.8036C109.191 28.2118 109.931 28.4159 110.849 28.4159ZM131.947 31.7834C129.957 31.7834 128.362 31.2987 127.163 30.3293C125.964 29.3598 125.365 27.6378 125.365 25.1632V16.8974H122.112V12.8028H125.365L125.939 7.71328H130.263V12.8028H135.391V16.8974H130.263V25.2015C130.263 26.1199 130.454 26.7577 130.837 27.1148C131.245 27.4465 131.934 27.6123 132.903 27.6123H135.276V31.7834H131.947ZM144.609 32.2427C142.976 32.2427 141.637 31.9875 140.591 31.4773C139.545 30.9416 138.767 30.24 138.257 29.3726C137.747 28.5052 137.491 27.5485 137.491 26.5026C137.491 24.7423 138.18 23.3136 139.558 22.2166C140.936 21.1196 143.002 20.5711 145.757 20.5711H150.579V20.1119C150.579 18.8108 150.209 17.8541 149.469 17.2418C148.729 16.6296 147.811 16.3234 146.714 16.3234C145.719 16.3234 144.852 16.5658 144.112 17.0505C143.372 17.5097 142.913 18.1985 142.734 19.1169H137.951C138.078 17.7393 138.537 16.5403 139.328 15.5198C140.145 14.4994 141.191 13.7213 142.466 13.1855C143.742 12.6243 145.17 12.3436 146.752 12.3436C149.456 12.3436 151.587 13.0197 153.143 14.3718C154.699 15.7239 155.477 17.6373 155.477 20.1119V31.7834H151.306L150.847 28.7221C150.286 29.7425 149.495 30.5844 148.474 31.2477C147.479 31.911 146.191 32.2427 144.609 32.2427ZM145.719 28.4159C147.122 28.4159 148.206 27.9567 148.972 27.0383C149.763 26.1199 150.26 24.9846 150.464 23.6325H146.293C144.992 23.6325 144.061 23.8749 143.499 24.3596C142.938 24.8188 142.658 25.3928 142.658 26.0816C142.658 26.8214 142.938 27.3955 143.499 27.8036C144.061 28.2118 144.801 28.4159 145.719 28.4159ZM169.871 32.2427C168.443 32.2427 167.193 31.9748 166.121 31.439C165.05 30.9033 164.182 30.1507 163.519 29.1813L162.983 31.7834H158.621V4.23095H163.519V15.5198C164.131 14.6779 164.935 13.9381 165.93 13.3003C166.95 12.6625 168.264 12.3436 169.871 12.3436C171.657 12.3436 173.252 12.7773 174.655 13.6447C176.058 14.5121 177.168 15.6984 177.984 17.2036C178.8 18.7088 179.209 20.418 179.209 22.3314C179.209 24.2448 178.8 25.9541 177.984 27.4592C177.168 28.9389 176.058 30.1124 174.655 30.9798C173.252 31.8217 171.657 32.2427 169.871 32.2427ZM168.838 27.9567C170.394 27.9567 171.683 27.4337 172.703 26.3877C173.724 25.3418 174.234 23.9897 174.234 22.3314C174.234 20.6732 173.724 19.3083 172.703 18.2368C171.683 17.1653 170.394 16.6296 168.838 16.6296C167.256 16.6296 165.955 17.1653 164.935 18.2368C163.94 19.2828 163.442 20.6349 163.442 22.2931C163.442 23.9514 163.94 25.3163 164.935 26.3877C165.955 27.4337 167.256 27.9567 168.838 27.9567ZM184.694 9.85625C183.801 9.85625 183.061 9.58838 182.474 9.05263C181.913 8.51689 181.633 7.84083 181.633 7.02446C181.633 6.20809 181.913 5.54479 182.474 5.03456C183.061 4.49882 183.801 4.23095 184.694 4.23095C185.587 4.23095 186.314 4.49882 186.875 5.03456C187.462 5.54479 187.755 6.20809 187.755 7.02446C187.755 7.84083 187.462 8.51689 186.875 9.05263C186.314 9.58838 185.587 9.85625 184.694 9.85625ZM182.245 31.7834V12.8028H187.143V31.7834H182.245ZM199.182 31.7834C197.192 31.7834 195.598 31.2987 194.399 30.3293C193.2 29.3598 192.6 27.6378 192.6 25.1632V16.8974H189.347V12.8028H192.6L193.174 7.71328H197.498V12.8028H202.626V16.8974H197.498V25.2015C197.498 26.1199 197.69 26.7577 198.072 27.1148C198.48 27.4465 199.169 27.6123 200.139 27.6123H202.511V31.7834H199.182Z" fill="#201E1C"/>
</svg>
